<?xml version="1.0" encoding="UTF-8" standalone="no"?>
<svg
   viewBox="0 0 100 100"
   version="1.1"
   id="svg4"
   sodipodi:docname="logo2.svg"
   inkscape:version="1.3.2 (091e20e, 2023-11-25, custom)"
   xmlns:inkscape="http://www.inkscape.org/namespaces/inkscape"
   xmlns:sodipodi="http://sodipodi.sourceforge.net/DTD/sodipodi-0.dtd"
   xmlns="http://www.w3.org/2000/svg"
   xmlns:svg="http://www.w3.org/2000/svg">
  <defs
     id="defs4">
    <linearGradient
       id="swatch10"
       inkscape:swatch="solid">
      <stop
         style="stop-color:#000000;stop-opacity:1;"
         offset="0"
         id="stop10" />
    </linearGradient>
  </defs>
  <sodipodi:namedview
     id="namedview4"
     pagecolor="#ffffff"
     bordercolor="#000000"
     borderopacity="0.25"
     inkscape:showpageshadow="2"
     inkscape:pageopacity="0.0"
     inkscape:pagecheckerboard="0"
     inkscape:deskcolor="#d1d1d1"
     inkscape:zoom="7.77"
     inkscape:cx="50"
     inkscape:cy="50"
     inkscape:window-width="1920"
     inkscape:window-height="991"
     inkscape:window-x="-9"
     inkscape:window-y="-9"
     inkscape:window-maximized="1"
     inkscape:current-layer="svg4" />
  <path
     id="circle1"
     style="fill:#f5ec3d;fill-opacity:1"
     d="M 100,50 A 50,50 0 0 1 50,100 50,50 0 0 1 0,50 50,50 0 0 1 50,0 50,50 0 0 1 100,50 Z" />
  <path
     d="m 22.316603,26.396397 c 12.5,11 17.462998,15.801801 16.837998,16.176801 -0.625,0.375 -6.194498,-4.062902 -21.194498,-3.562902 9.109224,-0.504573 9.960465,-6.464259 4.3565,-12.613899 z"
     stroke="#000000"
     stroke-width="3"
     stroke-linecap="round"
     stroke-linejoin="round"
     fill="transparent"
     id="path1"
     sodipodi:nodetypes="cscc"
     style="fill:#333333;fill-opacity:1;stroke:#333333;stroke-opacity:1" />
  <path
     d="m 77.134379,26.98347 c -12.5,11 -17.462998,15.801801 -16.837998,16.176801 0.625,0.375 6.194498,-4.062902 21.194498,-3.562902 -9.109224,-0.504573 -9.960465,-6.464259 -4.3565,-12.613899 z"
     stroke="#000000"
     stroke-width="3"
     stroke-linecap="round"
     stroke-linejoin="round"
     fill="transparent"
     id="path1-2"
     sodipodi:nodetypes="cscc"
     style="stroke:#333333;stroke-opacity:1;fill:#333333;fill-opacity:1" />
  <path
     d="m 24.099099,68.584299 c 3.970399,20.920206 45.3861,18.088803 51.930502,-9.6139 -15.810811,14.375804 -46.930502,9.6139 -51.930502,9.6139"
     stroke="#000000"
     stroke-width="5"
     stroke-linecap="round"
     stroke-linejoin="round"
     fill="#000000"
     id="path3"
     sodipodi:nodetypes="ccc"
     style="stroke:#333333;stroke-opacity:1;fill:#333333;fill-opacity:1" />
  <path
     d="m 40.2574,74.8713 c -1.439397,5.934581 -1.231887,7.861996 0.187902,13.5148 C 40.663787,89.451891 44.551639,91.0821 48,89.8713 47.356499,86.396397 48.841699,79.059202 50,77 Z"
     stroke="#ff0000"
     stroke-width="5"
     stroke-linecap="round"
     stroke-linejoin="round"
     fill="#ff0000"
     id="path4"
     sodipodi:nodetypes="ccccc"
     style="fill:#d92626;fill-opacity:1;stroke:#d92626;stroke-opacity:1" />
  <path
     id="line4"
     style="fill:none;fill-opacity:1;stroke:#761515;stroke-width:5;stroke-linecap:round;stroke-opacity:1"
     d="m 45,76 c -2.445302,3.603604 -0.7426,7.514801 -0.7426,7.514801"
     sodipodi:nodetypes="cc" />
</svg>
